# xmcd CD database file
#
# Track frame offsets:
#	150
#	12992
#	25889
#	41061
#	57916
#	75802
#	91533
#	104590
#	120585
#	133072
#	146034
#	158194
#	175499
#	190054
#	204363
#	214850
#	227975
#	241500
#	251832
#	265327
#
# Disc length: 3776 seconds
#
# Revision: 1
# Processed by: cddbd v1.5.1PL0 Copyright (c) Steve Scherf et al.
# Submitted via: CDex 1.51
#
DISCID=100ebe14
DTITLE=Joaquim and Manuel - 20 Sucessos
DYEAR=2004
DGENRE=Sertanejo
TTITLE0=Vento Mensageiro
TTITLE1=Esta Noite a Cama Quebra
TTITLE2=Boate Azul
TTITLE3=Meu Caminhão é Minha Vida
TTITLE4=Som de Cristal
TTITLE5=Sou a Metade Sem Você
TTITLE6=Coitadinha Dela
TTITLE7=Eu Só Gosto de Você
TTITLE8=A Loira e a Morena
TTITLE9=Canto Bebo Choro
TTITLE10=Fica Comigo
TTITLE11=DNA do Ratinho
TTITLE12=Carreteiro Valdivino
TTITLE13=Dias Pares e Dias Impares
TTITLE14=Rodoanel Viário
TTITLE15=Lindas Cidades de Rondônia
TTITLE16=Eu Amo Uma Filha de DEUS
TTITLE17=Solidão Atoa
TTITLE18=Loira Gostosa
TTITLE19=Meu Filho
EXTD=YEAR: 2004
EXTT0=
EXTT1=
EXTT2=
EXTT3=
EXTT4=
EXTT5=
EXTT6=
EXTT7=
EXTT8=
EXTT9=
EXTT10=
EXTT11=
EXTT12=
EXTT13=
EXTT14=
EXTT15=
EXTT16=
EXTT17=
EXTT18=
EXTT19=
PLAYORDER=
